<svg width="375" height="375" viewBox="0 0 375 375" fill="none" xmlns="http://www.w3.org/2000/svg">
<g clip-path="url(#clip0_1_2)">
<path d="M187.455 143.818L235.455 221.273H236.909L284.909 143.818H311.455L252.909 236.909L311.455 330H284.909L236.909 254H235.455L187.455 330H160.909L220.909 236.909L160.909 143.818H187.455Z" fill="#B4965E"/>
<path d="M161.545 232V45.8182H224.455C239.061 45.8182 251 48.4545 260.273 53.7273C269.606 58.9394 276.515 66 281 74.9091C285.485 83.8182 287.727 93.7576 287.727 104.727C287.727 115.697 285.485 125.667 281 134.636C276.576 143.606 269.727 150.758 260.455 156.091C251.182 161.364 239.303 164 224.818 164H179.727V144H224.091C234.091 144 242.121 142.273 248.182 138.818C254.242 135.364 258.636 130.697 261.364 124.818C264.152 118.879 265.545 112.182 265.545 104.727C265.545 97.2727 264.152 90.6061 261.364 84.7273C258.636 78.8485 254.212 74.2424 248.091 70.9091C241.97 67.5151 233.848 65.8182 223.727 65.8182H184.091V232H161.545Z" fill="black"/>
<rect x="119" y="46" width="35" height="15" fill="black"/>
<rect x="86" y="67" width="68" height="15" fill="black"/>
<rect x="57" y="109" width="97" height="15" fill="black"/>
<rect x="139" y="153" width="15" height="15" fill="black"/>
<rect x="105" y="131" width="49" height="15" fill="black"/>
<rect x="86" y="174" width="68" height="15" fill="black"/>
<rect x="119" y="195" width="35" height="15" fill="black"/>
<rect x="73" y="216" width="81" height="15" fill="black"/>
<rect x="129" y="88" width="25" height="15" fill="black"/>
</g>
<defs>
<clipPath id="clip0_1_2">
<rect width="375" height="375" fill="white"/>
</clipPath>
</defs>
</svg>
